<svg width="461" height="473" viewBox="0 0 461 473" fill="none" xmlns="http://www.w3.org/2000/svg">
<path d="M333.411 283.49H414.984V220.443H333.411V283.49Z" fill="#BDBDBD"/>
<path d="M339.226 277.993H349.058V266.863H339.226V277.993Z" fill="white"/>
<path d="M390.104 220.613H380.836V234.062H390.104V220.613Z" fill="#FAFAFA"/>
<path d="M390.104 269.85H380.836V283.298H390.104V269.85Z" fill="#FAFAFA"/>
<path d="M353.766 283.931C353.619 283.931 353.506 270.064 353.506 252.962C353.506 235.86 353.619 221.993 353.766 221.993C353.912 221.993 354.025 235.86 354.025 252.962C354.025 270.064 353.912 283.931 353.766 283.931Z" fill="#E0E0E0"/>
<path d="M300.132 392.064H440.881V283.287H300.132V392.064Z" fill="#BDBDBD"/>
<path d="M310.202 382.563H327.158V363.357H310.202V382.563Z" fill="white"/>
<path d="M397.95 283.57H381.965V306.78H397.95V283.57Z" fill="#FAFAFA"/>
<path d="M397.95 368.526H381.965V391.736H397.95V368.526Z" fill="#FAFAFA"/>
<path d="M335.274 392.81C335.026 392.81 334.823 368.888 334.823 339.378C334.823 309.867 335.026 285.945 335.274 285.945C335.523 285.945 335.715 309.867 335.715 339.378C335.715 368.888 335.523 392.81 335.274 392.81Z" fill="#E0E0E0"/>
<path d="M436.411 57.0458L443.952 72.3495L460.818 74.804L448.614 86.7257L451.493 103.545L436.411 95.6048L421.341 103.545L424.219 86.7257L412.016 74.804L428.882 72.3495L436.411 57.0458Z" fill="#EBEBEB"/>
<path d="M28.2449 254.704L32.9975 264.353L43.6316 265.902L35.9439 273.413L37.7501 284.022L28.2449 279.012L18.7511 284.022L20.5573 273.413L12.8696 265.902L23.5037 264.353L28.2449 254.704Z" fill="#EBEBEB"/>
<path d="M34.1486 170.664L44.6923 192.087L68.2858 195.514L51.2172 212.198L55.2473 235.736L34.1486 224.628L13.0385 235.736L17.0686 212.198L0 195.514L23.5936 192.087L34.1486 170.664Z" fill="#EBEBEB"/>
<path d="M429.704 126.167L434.243 135.397L444.414 136.878L437.065 144.072L438.792 154.218L429.704 149.422L420.606 154.218L422.344 144.072L414.984 136.878L425.155 135.397L429.704 126.167Z" fill="#EBEBEB"/>
<path d="M45.7093 125.58L50.2587 134.81L60.4299 136.291L53.0696 143.474L54.808 153.62L45.7093 148.835L36.6218 153.62L38.3603 143.474L31 136.291L41.1712 134.81L45.7093 125.58Z" fill="#EBEBEB"/>
<path d="M384.493 75.3696L387.473 81.4096L394.122 82.3823L389.313 87.0877L390.442 93.7272L384.493 90.5828L378.533 93.7272L379.673 87.0877L374.864 82.3823L381.513 81.4096L384.493 75.3696Z" fill="#EBEBEB"/>
<path d="M109.837 380.425L115.628 392.188L128.599 394.077L119.218 403.239L121.431 416.179L109.837 410.071L98.2436 416.179L100.456 403.239L91.0752 394.077L104.035 392.188L109.837 380.425Z" fill="#EBEBEB"/>
<path d="M125.145 368.718L127.538 373.582L132.889 374.362L129.017 378.152L129.931 383.49L125.145 380.968L120.347 383.49L121.262 378.152L117.39 374.362L122.752 373.582L125.145 368.718Z" fill="#EBEBEB"/>
<path d="M339.236 323.655L344.338 334.005L355.728 335.656L347.488 343.721L349.429 355.088L339.236 349.715L329.042 355.088L330.983 343.721L322.743 335.656L334.133 334.005L339.236 323.655Z" fill="#790B0A"/>
<path d="M363.552 314.482L365.957 319.357L371.33 320.137L367.447 323.938L368.361 329.299L363.552 326.766L358.755 329.299L359.669 323.938L355.786 320.137L361.159 319.357L363.552 314.482Z" fill="#790B0A"/>
<path d="M224.067 315.036L252.402 464.985L278.287 417.061L327.348 445.915L275.262 299.902L224.067 315.036Z" fill="#8B1E1E"/>
<g opacity="0.3">
<path opacity="0.3" d="M233.607 365.472C236.304 365.981 239.083 365.826 241.706 365.02C244.33 364.214 246.718 362.781 248.667 360.845C251.252 358.176 252.968 354.534 256.219 352.747C259.143 351.141 262.744 351.367 265.961 352.26C269.178 353.154 272.204 354.636 275.421 355.473C278.595 356.283 281.899 356.453 285.14 355.971C288.38 355.489 291.493 354.366 294.296 352.668L286.123 329.933L248.192 325.182L230.13 346.956L233.607 365.472Z" fill="black"/>
</g>
<path d="M276.447 411.111C276.289 411.111 272.067 395.57 267.021 376.33C261.975 357.09 257.99 341.436 258.171 341.402C258.352 341.368 262.54 356.92 267.586 376.183C272.632 395.445 276.606 411.066 276.447 411.111Z" fill="#263238"/>
<path d="M228.222 322.841L199.899 472.778L174.002 424.854L124.941 453.708L177.028 307.707L228.222 322.841Z" fill="#8B1E1E"/>
<g opacity="0.3">
<path opacity="0.3" d="M161.449 351.378C161.449 351.378 169.509 358.018 179.116 354.964C188.722 351.91 194.694 351.254 199.898 354.964C205.102 358.674 219.18 370.743 219.18 370.743L222.442 353.448L203.533 327.433L183.801 331.426L169.757 332.794L164.531 342.714L161.449 351.378Z" fill="black"/>
</g>
<path d="M394.292 187.495C394.292 198.251 380.576 207.515 378.566 217.683C376.5 228.157 385.599 241.968 381.614 251.616C377.629 261.264 361.294 264.725 355.503 273.446C349.712 282.167 352.76 298.5 345.343 305.942C337.927 313.385 321.637 310.252 312.911 316.122C304.184 321.993 300.911 338.212 291.123 342.284C281.505 346.277 267.722 337.161 257.257 339.23C247.097 341.244 237.863 354.987 227.127 354.987C216.392 354.987 207.135 341.244 196.986 339.23C186.533 337.161 172.749 346.277 163.12 342.284C153.491 338.292 150.047 321.925 141.344 316.122C132.64 310.32 116.339 313.374 108.9 305.942C101.461 298.511 104.599 282.189 98.7399 273.446C92.881 264.703 76.6929 261.423 72.6402 251.616C68.5876 241.81 77.7541 228.169 75.6882 217.683C73.6788 207.504 59.9517 198.251 59.9517 187.495C59.9517 176.738 73.6788 167.463 75.6882 157.294C77.7541 146.82 68.644 133.01 72.6402 123.362C76.6365 113.713 92.9601 110.252 98.7399 101.543C104.52 92.8335 101.483 76.4892 108.9 69.0353C116.317 61.5814 132.606 64.7258 141.344 58.8555C150.081 52.9851 153.332 36.7652 163.12 32.7046C172.907 28.644 186.521 37.8285 196.986 35.7586C207.146 33.7452 216.392 19.9911 227.127 19.9911C237.863 19.9911 247.108 33.7452 257.257 35.7586C267.71 37.8285 281.494 28.7006 291.123 32.7046C300.911 36.7652 304.207 53.0643 312.911 58.8555C321.614 64.6466 337.915 61.604 345.343 69.0353C352.771 76.4666 349.644 92.7882 355.503 101.543C361.362 110.298 377.55 113.555 381.614 123.362C385.678 133.168 376.5 146.809 378.566 157.294C380.576 167.463 394.292 176.704 394.292 187.495Z" fill="#8B1E1E"/>
<path d="M188.011 93.6026C188.011 93.6026 187.887 93.4555 187.707 93.1388C187.526 92.8221 187.244 92.3131 186.939 91.7589C186.273 90.5599 185.359 88.7954 184.275 86.6011C182.096 82.2125 179.274 76.0367 176.553 69.0692C173.833 62.1017 171.744 55.6318 170.378 50.9717C169.701 48.6077 169.182 46.6962 168.854 45.3163C168.708 44.7055 168.583 44.1852 168.493 43.778C168.435 43.6029 168.404 43.4197 168.403 43.235C168.49 43.4 168.559 43.5746 168.606 43.7553L169.069 45.2597C169.509 46.6509 170.085 48.5286 170.773 50.8021C172.241 55.4735 174.397 61.8867 177.095 68.8995C179.793 75.9123 182.57 82.0315 184.647 86.4654L187.142 91.7023L187.808 93.1275C187.89 93.2794 187.958 93.4384 188.011 93.6026Z" fill="#263238"/>
<path d="M202.89 87.9358C202.692 87.541 202.544 87.123 202.449 86.6916C202.212 85.8772 201.896 84.6896 201.524 83.2192C200.779 80.2897 199.853 76.1951 199.018 71.6481C198.182 67.1011 197.595 62.95 197.257 59.9413C197.076 58.437 196.963 57.2154 196.895 56.3671C196.843 55.9313 196.843 55.4908 196.895 55.055C197.025 55.4749 197.112 55.9069 197.155 56.3444L197.697 59.8848C198.148 62.8822 198.826 67.0106 199.627 71.5463C200.429 76.082 201.321 80.1765 201.953 83.1287C202.258 84.5086 202.506 85.685 202.709 86.6351C202.812 87.0616 202.873 87.4973 202.89 87.9358Z" fill="#263238"/>
<path d="M229.137 85.3229C228.968 85.3229 228.55 72.6321 228.2 56.9891C227.85 41.3461 227.692 28.6439 227.85 28.6326C228.008 28.6213 228.437 41.3121 228.787 56.9777C229.137 72.6434 229.295 85.3229 229.137 85.3229Z" fill="#263238"/>
<path d="M255.552 59.2511C255.71 59.2511 253.881 65.6418 251.477 73.4237C249.072 81.2056 246.961 87.4605 246.848 87.4153C246.735 87.37 248.519 81.0246 250.924 73.2427C253.328 65.4608 255.383 59.2059 255.552 59.2511Z" fill="#263238"/>
<path d="M266.321 92.0414C266.343 91.8542 266.393 91.6713 266.468 91.4985L266.976 90.0055C267.428 88.716 268.105 86.861 269.008 84.5762C270.78 80.0518 273.309 73.729 276.199 66.8294C279.089 59.9297 281.776 53.72 283.751 49.2409C284.722 47.0692 285.523 45.2821 286.133 43.9474L286.799 42.5222C286.968 42.2055 287.059 42.0359 287.081 42.0472C287.04 42.2252 286.983 42.3993 286.912 42.5675L286.336 44.0379L284.135 49.4106C282.205 54.0028 279.619 60.2012 276.741 67.0669C273.862 73.9326 271.311 80.131 269.392 84.7346L267.191 90.0959L266.57 91.5437C266.508 91.7192 266.424 91.8864 266.321 92.0414Z" fill="#263238"/>
<path d="M280.388 99.4163C280.559 99.0163 280.775 98.6368 281.031 98.2852C281.483 97.5613 282.16 96.532 282.995 95.2765C284.689 92.7768 287.127 89.3609 289.961 85.7188C292.794 82.0766 295.515 78.9322 297.524 76.67C298.529 75.5389 299.364 74.6454 299.951 74.0346C300.234 73.6957 300.556 73.3919 300.911 73.1297C300.692 73.5156 300.427 73.8727 300.12 74.1929C299.511 74.9394 298.743 75.8556 297.863 76.9415C295.932 79.2715 293.279 82.4951 290.446 86.1373C287.613 89.7794 285.14 93.1387 283.357 95.5819L281.246 98.4662C280.993 98.8119 280.706 99.1304 280.388 99.4163Z" fill="#263238"/>
<path d="M300.956 116.27C300.843 116.157 309.784 107.651 320.903 97.2786C332.023 86.9065 341.144 78.593 341.223 78.7061C341.302 78.8192 332.407 87.3363 321.276 97.7084C310.145 108.081 301.069 116.394 300.956 116.27Z" fill="#263238"/>
<path d="M336.832 119.787C335.743 120.477 334.612 121.097 333.445 121.642C331.323 122.773 328.444 124.346 325.261 126.167C322.077 127.988 319.142 129.503 316.963 130.521C315.834 131.03 314.999 131.426 314.367 131.652C314.058 131.814 313.727 131.928 313.385 131.992C314.473 131.302 315.604 130.682 316.771 130.137C318.894 129.006 321.772 127.433 324.956 125.612C328.139 123.791 331.074 122.219 333.253 121.258C334.382 120.749 335.217 120.353 335.849 120.127C336.156 119.961 336.488 119.846 336.832 119.787Z" fill="#263238"/>
<path d="M370.009 133.575C370.066 133.733 359.432 137.624 346.303 142.273C333.174 146.922 322.416 150.553 322.371 150.406C322.326 150.259 332.937 146.356 346.077 141.708C359.217 137.059 369.953 133.428 370.009 133.575Z" fill="#263238"/>
<path d="M380.576 194.055C380.576 194.213 369.005 193.252 354.77 191.894C340.535 190.537 328.997 189.304 329.02 189.135C329.043 188.965 340.58 189.949 354.826 191.306C369.073 192.664 380.587 193.897 380.576 194.055Z" fill="#263238"/>
<path d="M372.075 248.302C372.008 248.449 361.204 243.472 347.951 237.206C334.698 230.94 324.008 225.725 324.076 225.578C324.143 225.431 334.947 230.397 348.2 236.674C361.453 242.952 372.143 248.155 372.075 248.302Z" fill="#263238"/>
<path d="M336.538 299.913C336.414 300.015 328.636 290.955 319.142 279.69C309.648 268.424 302.062 259.183 302.209 259.081C302.356 258.979 310.111 268.028 319.605 279.305C329.099 290.582 336.662 299.8 336.538 299.913Z" fill="#263238"/>
<path d="M306.871 306.779C306.52 306.387 306.206 305.963 305.934 305.512C305.358 304.675 304.545 303.443 303.575 301.916C301.61 298.85 298.98 294.563 296.203 289.756C293.426 284.949 291.055 280.515 289.43 277.314C288.606 275.697 287.94 274.385 287.511 273.469C287.255 273.003 287.044 272.514 286.878 272.01C287.197 272.432 287.477 272.882 287.714 273.356C288.256 274.351 288.956 275.618 289.802 277.122C291.552 280.3 293.99 284.689 296.756 289.496C299.522 294.303 302.096 298.613 303.97 301.723C304.85 303.216 305.595 304.449 306.171 305.422C306.454 305.847 306.688 306.302 306.871 306.779Z" fill="#263238"/>
<path d="M288.448 332.681C288.448 332.681 288.335 332.534 288.154 332.218L287.42 330.838C286.777 329.627 285.908 327.863 284.869 325.669C282.792 321.269 280.116 315.093 277.576 308.103C275.036 301.113 273.117 294.665 271.932 290.005C271.311 287.653 270.803 285.73 270.555 284.406C270.431 283.796 270.329 283.275 270.239 282.868C270.194 282.69 270.167 282.508 270.16 282.325C270.252 282.487 270.317 282.663 270.352 282.845L270.781 284.35C271.176 285.752 271.695 287.619 272.327 289.892C273.659 294.564 275.635 300.988 278.175 307.99C280.715 314.991 283.311 321.133 285.298 325.578L287.669 330.815C287.917 331.381 288.131 331.856 288.312 332.24C288.375 332.381 288.421 332.529 288.448 332.681Z" fill="#263238"/>
<path d="M251.127 314.482C250.883 313.181 250.721 311.867 250.642 310.546C250.382 308.114 249.964 304.755 249.355 301.079C248.745 297.402 248.034 294.1 247.492 291.713C247.137 290.435 246.866 289.135 246.679 287.822C246.847 288.137 246.976 288.471 247.063 288.818C247.289 289.474 247.571 290.424 247.898 291.611C248.542 293.975 249.309 297.267 249.93 300.988C250.471 304.141 250.847 307.32 251.059 310.512C251.138 311.733 251.183 312.774 251.183 313.419C251.212 313.774 251.193 314.132 251.127 314.482Z" fill="#263238"/>
<path d="M226.709 347.046C226.683 346.855 226.683 346.661 226.709 346.469C226.709 346.017 226.709 345.463 226.709 344.807C226.709 343.359 226.709 341.266 226.709 338.687C226.799 333.518 227.036 326.392 227.443 318.531C227.849 310.67 228.357 303.544 228.775 298.398C228.978 295.819 229.17 293.738 229.317 292.301C229.396 291.645 229.452 291.091 229.497 290.65C229.511 290.454 229.548 290.26 229.61 290.073C229.637 290.268 229.637 290.466 229.61 290.661C229.61 291.102 229.61 291.657 229.531 292.324C229.441 293.851 229.328 295.909 229.181 298.42C228.877 303.657 228.47 310.738 228.052 318.554C227.635 326.37 227.341 333.541 227.149 338.699C227.059 341.21 226.98 343.223 226.924 344.807C226.924 345.474 226.856 346.017 226.833 346.469C226.821 346.667 226.779 346.861 226.709 347.046Z" fill="#263238"/>
<path d="M206.863 290.073C206.855 291.048 206.742 292.019 206.524 292.969C206.231 294.733 205.757 297.165 205.136 299.823C204.515 302.481 203.86 304.879 203.341 306.61C203.116 307.556 202.787 308.474 202.359 309.347C202.459 308.38 202.652 307.426 202.935 306.496L204.56 299.71C205.147 297.165 205.689 294.858 206.118 292.923C206.275 291.951 206.524 290.997 206.863 290.073Z" fill="#263238"/>
<path d="M170.977 272.846C169.498 275.297 167.85 277.64 166.044 279.859C164.387 282.195 162.581 284.42 160.637 286.521C162.113 284.069 163.761 281.726 165.57 279.509C167.219 277.167 169.025 274.941 170.977 272.846Z" fill="#263238"/>
<path d="M152.159 260.133C152.272 260.235 145.273 268.48 136.513 278.536C127.752 288.591 120.539 296.633 120.415 296.554C120.291 296.475 127.301 288.207 136.061 278.151C144.821 268.096 152.035 260.02 152.159 260.133Z" fill="#263238"/>
<path d="M142.732 246.096C139.964 248.772 137.059 251.301 134.029 253.675C129.118 257.724 125.054 260.914 124.998 260.789C127.768 258.12 130.673 255.594 133.701 253.222C136.59 250.697 139.605 248.318 142.732 246.096Z" fill="#263238"/>
<path d="M131.715 224.933C131.782 225.081 122.029 229.944 109.916 235.781C97.8033 241.617 87.9482 246.243 87.8691 246.096C87.7901 245.949 97.5549 241.097 109.668 235.249C121.781 229.401 131.647 224.786 131.715 224.933Z" fill="#263238"/>
<path d="M127.29 214.381C126.966 214.523 126.624 214.622 126.274 214.675C125.608 214.833 124.648 215.037 123.463 215.252C121.081 215.704 117.762 216.202 114.082 216.575C110.402 216.948 107.049 217.107 104.622 217.14C103.414 217.14 102.432 217.14 101.754 217.14C101.401 217.163 101.047 217.129 100.705 217.039C101.999 216.861 103.304 216.759 104.61 216.733C107.026 216.586 110.357 216.36 114.025 215.987C117.694 215.614 121.002 215.184 123.395 214.856C124.68 214.605 125.982 214.447 127.29 214.381Z" fill="#263238"/>
<path d="M123.711 190.005C123.054 190.06 122.393 190.06 121.736 190.005L116.362 189.734C111.847 189.507 105.57 189.304 98.65 189.338C91.7299 189.372 85.4534 189.655 80.9266 189.926L75.5644 190.254C74.9087 190.329 74.2481 190.352 73.5889 190.322C74.2302 190.168 74.8836 190.069 75.5418 190.028C76.8062 189.881 78.635 189.7 80.8927 189.507C85.4082 189.134 91.7074 188.795 98.6387 188.75C105.57 188.704 111.858 188.987 116.396 189.315C118.654 189.485 120.494 189.643 121.758 189.779C122.414 189.808 123.066 189.884 123.711 190.005Z" fill="#263238"/>
<path d="M125.923 168.605C125.923 168.763 118.574 166.852 109.6 164.341C100.625 161.83 93.3891 159.681 93.4343 159.522C93.4794 159.364 100.783 161.264 109.758 163.775C118.732 166.286 125.969 168.447 125.923 168.605Z" fill="#263238"/>
<path d="M130.654 150.689C130.472 150.678 130.293 150.64 130.123 150.576L128.622 150.123C127.335 149.716 125.472 149.083 123.203 148.257C117.274 146.076 111.464 143.584 105.796 140.792C100.13 137.996 94.6168 134.9 89.2801 131.517C87.2369 130.216 85.6 129.13 84.4937 128.35L83.2293 127.434C82.9471 127.219 82.8004 127.106 82.8116 127.083C82.9823 127.152 83.1451 127.239 83.2971 127.343L84.6291 128.157C85.758 128.881 87.4288 129.911 89.4946 131.166C93.6376 133.677 99.44 136.991 106.055 140.215C112.67 143.438 118.834 146.063 123.35 147.827C125.607 148.698 127.425 149.388 128.701 149.863L130.157 150.417C130.33 150.494 130.496 150.585 130.654 150.689Z" fill="#263238"/>
<path d="M141.276 132.591C141.186 132.716 135.474 128.847 128.52 123.939C121.566 119.03 116 114.946 116.102 114.811C116.204 114.675 121.904 118.554 128.87 123.463C135.835 128.372 141.366 132.49 141.276 132.591Z" fill="#263238"/>
<path d="M118.823 77.6428C118.823 77.6428 118.981 77.7333 119.252 77.9482L120.381 78.9436L124.546 82.6309L138.217 94.858L151.944 107.017L156.098 110.716L157.227 111.745C157.364 111.857 157.485 111.987 157.589 112.13C157.589 112.13 157.431 112.051 157.148 111.836L156.019 110.897C154.992 110.071 153.536 108.85 151.741 107.334C148.151 104.303 143.252 100.061 137.89 95.2992C132.528 90.5373 127.73 86.1486 124.343 82.9363C122.627 81.3302 121.25 80.0294 120.302 79.1019L119.229 78.0387C118.958 77.7899 118.8 77.6541 118.823 77.6428Z" fill="#263238"/>
<path d="M154.032 78.6721C154.032 78.6721 154.337 78.921 154.8 79.4526C155.263 79.9842 155.929 80.7646 156.708 81.7148C158.277 83.6829 160.365 86.4653 162.533 89.6324C164.7 92.7995 166.518 95.7629 167.771 97.9459C168.403 99.077 168.9 99.9253 169.216 100.547C169.411 100.857 169.563 101.192 169.667 101.543C168.84 100.464 168.085 99.3299 167.409 98.1495C166.066 96.0231 164.192 93.1162 162.036 89.9491C159.88 86.782 157.848 83.9883 156.392 81.9636C155.541 80.9144 154.753 79.8153 154.032 78.6721Z" fill="#263238"/>
<g opacity="0.2">
<path opacity="0.2" d="M108.911 69.0465L158.028 112.13L170.231 102.346L141.738 58.5952C141.738 58.5952 139.548 60.2014 133.836 61.8301C128.384 63.4024 112.184 63.8209 108.911 69.0465Z" fill="black"/>
</g>
<g opacity="0.2">
<path opacity="0.2" d="M163.583 32.6028L187.56 92.7429L202.891 87.9358L197.777 35.7698C197.777 35.7698 195.146 36.3919 189.288 35.6454C183.609 34.9215 169.848 29.5262 163.583 32.6028Z" fill="black"/>
</g>
<g opacity="0.3">
<path opacity="0.3" d="M227.522 20.0136L229.137 85.3228L243.496 86.0128L258.036 35.8828C255.015 35.2817 252.142 34.0903 249.581 32.3764C244.614 29.1867 234.476 19.482 227.522 20.0136Z" fill="black"/>
</g>
<g opacity="0.2">
<path opacity="0.2" d="M290.152 32.3539L266.322 92.5619L279.259 98.7716L312.053 58.2106C309.588 56.1257 307.486 53.645 305.833 50.8699C302.739 45.8591 297.411 34.3559 290.152 32.3539Z" fill="black"/>
</g>
<g opacity="0.2">
<path opacity="0.2" d="M346.122 69.9174L301.735 116.292L311.624 129.65L354.995 100.649C353.567 98.0135 352.601 95.1518 352.139 92.1886C351.101 86.5331 350.954 76.2628 346.122 69.9174Z" fill="black"/>
</g>
<g opacity="0.2">
<path opacity="0.2" d="M381.162 122.242L321.388 146.888L326.343 162.192L378.351 156.536C378.351 156.536 378.024 154.93 378.712 149.06C379.367 143.37 385.372 130.657 381.162 122.242Z" fill="black"/>
</g>
<g opacity="0.2">
<path opacity="0.2" d="M394.406 187.495L329.236 189.757L328.694 204.156L378.364 218.724C378.694 216.651 379.357 214.646 380.329 212.786C384.031 205.863 394.406 196.091 394.406 187.495Z" fill="black"/>
</g>
<g opacity="0.2">
<path opacity="0.2" d="M382.382 249.229L322.382 225.804L316.32 238.914L357.152 271.297C359.298 269.238 361.673 267.431 364.23 265.913C369.197 262.735 381.005 257.588 382.382 249.229Z" fill="black"/>
</g>
<g opacity="0.2">
<path opacity="0.2" d="M294.137 248.302L279.281 260.744C280.41 261.875 300.199 295.627 312.402 316.461C312.561 316.324 312.726 316.196 312.899 316.077C320.925 310.693 335.217 312.853 343.277 307.526L294.137 248.302Z" fill="black"/>
<path opacity="0.2" d="M266.842 271.919L244.67 279.497L255.169 339.807C255.851 339.566 256.549 339.374 257.257 339.23C267.711 337.16 281.494 346.277 291.124 342.284C292.442 341.718 293.668 340.955 294.759 340.022L266.842 271.919Z" fill="black"/>
<path opacity="0.2" d="M226.36 354.964L229.893 276.172L210.702 271.297L196.444 339.162L196.964 339.253C206.898 341.187 215.94 354.285 226.36 354.964Z" fill="black"/>
<path opacity="0.2" d="M178.156 262.791C178.156 262.791 152.824 296.792 139.571 315.093C140.184 315.402 140.78 315.746 141.354 316.122C150.058 321.958 153.343 338.212 163.13 342.284C163.582 342.465 164.045 342.612 164.508 342.748L199.898 275.629L178.156 262.791Z" fill="black"/>
<path opacity="0.2" d="M152.158 235.419L98.1294 272.62C98.3326 272.892 98.5584 273.152 98.739 273.435C104.609 282.212 101.482 298.488 108.899 305.931C109.583 306.605 110.341 307.201 111.157 307.707C130.246 286.148 164.519 247.442 165.76 246.096L152.158 235.419Z" fill="black"/>
<path opacity="0.2" d="M139.774 208.849L75.8912 219.188C76.9185 229.458 68.8357 242.42 72.6401 251.605C72.8693 252.166 73.1449 252.707 73.4641 253.222C95.8159 242.07 142.518 218.871 144.459 218.747L139.774 208.849Z" fill="black"/>
<path opacity="0.2" d="M136.286 173.197L75.9027 155.745C75.8463 156.265 75.7785 156.785 75.6882 157.294C73.6788 167.474 59.9517 176.738 59.9517 187.494C59.9548 188.211 60.0152 188.926 60.1323 189.632H133.837L136.286 173.197Z" fill="black"/>
<path opacity="0.2" d="M72.8882 122.898C95.4657 135.012 139.571 159.522 139.571 159.522L150.431 138.857L99.4281 100.4C99.2023 100.796 98.9878 101.203 98.7395 101.531C92.9935 110.116 77.2682 113.464 72.8882 122.898Z" fill="black"/>
</g>
<path d="M394.291 187.494L394.224 186.77C394.197 186.061 394.098 185.356 393.93 184.667C393.273 181.954 392.125 179.386 390.544 177.088C388.602 173.966 385.667 170.471 382.641 166.049C380.933 163.696 379.621 161.079 378.758 158.301C378.023 155.058 378.023 151.692 378.758 148.449C379.39 144.999 380.417 141.448 381.309 137.681C382.201 133.915 383.036 129.843 382.201 125.68C381.728 123.573 380.765 121.608 379.39 119.946C377.915 118.253 376.231 116.755 374.378 115.489C370.63 112.82 366.318 110.693 362.197 107.911C360.066 106.534 358.129 104.875 356.44 102.979C354.782 100.922 353.578 98.5354 352.907 95.9777C351.462 90.8313 351.134 85.3342 350.039 79.837C349.561 77.038 348.618 74.3389 347.251 71.8515C345.766 69.3474 343.513 67.3913 340.828 66.2753C338.056 65.1593 335.154 64.3992 332.192 64.0131C329.2 63.5154 326.13 63.1647 323.059 62.6218C319.913 62.1673 316.863 61.2007 314.028 59.7602C311.218 58.0673 308.837 55.7442 307.074 52.9736C305.2 50.2816 303.586 47.386 301.87 44.5244C300.227 41.5964 298.257 38.8643 296 36.3805C293.674 33.8679 290.5 32.3083 287.093 32.0032C283.612 31.8741 280.132 32.2823 276.775 33.2134C273.389 34.0391 269.912 35.0458 266.356 35.7132C262.761 36.562 259.011 36.4919 255.451 35.5096C251.98 34.1453 248.734 32.2655 245.821 29.9333C242.807 27.6711 239.872 25.4089 236.655 23.3956C233.438 21.3822 229.791 19.9231 225.998 20.3529H225.287C225.05 20.3529 224.824 20.4547 224.598 20.5C224.136 20.6131 223.661 20.6923 223.21 20.828C222.301 21.1178 221.411 21.4653 220.546 21.8686C218.8 22.7006 217.123 23.6728 215.534 24.7755C212.328 27.0377 209.291 29.5035 205.995 31.743C204.353 32.8941 202.616 33.9008 200.802 34.7517C198.942 35.5851 196.952 36.0865 194.92 36.2335C190.847 36.2596 186.792 35.6842 182.886 34.5255C178.954 33.4005 174.943 32.5725 170.886 32.0484C168.861 31.8487 166.816 31.9863 164.836 32.4556C162.863 33.0052 161.043 34.0039 159.519 35.3738C156.403 38.0998 154.235 41.7645 152.068 45.3614C150.022 49.1278 147.629 52.6948 144.922 56.0163C143.489 57.6616 141.767 59.0301 139.842 60.0543C137.877 60.9851 135.813 61.6909 133.69 62.1581C129.445 63.0969 125.11 63.4928 120.832 64.2619C116.554 65.031 112.185 66.2413 109.092 69.25C107.599 70.8434 106.446 72.7256 105.705 74.7811C104.958 76.8542 104.409 78.9941 104.068 81.1717C103.278 85.5377 102.939 90.0169 101.81 94.4168C101.325 96.6499 100.515 98.7993 99.4059 100.796C98.2372 102.775 96.705 104.513 94.8904 105.92C91.3231 108.793 87.2704 110.919 83.3871 113.295C81.4415 114.468 79.5749 115.768 77.7991 117.186C76.0326 118.6 74.5468 120.334 73.4191 122.298C72.3438 124.298 71.7996 126.542 71.8387 128.813C71.8786 131.097 72.1471 133.37 72.6402 135.6C73.5884 140.124 75.0221 144.569 75.7897 149.173C76.2448 151.535 76.3362 153.954 76.0607 156.344C75.7402 158.728 74.9743 161.031 73.8029 163.131C71.4436 167.259 68.373 170.89 65.6524 174.736C64.2552 176.631 63.0383 178.653 62.0174 180.776C60.899 182.846 60.3133 185.163 60.3133 187.517C60.3133 189.871 60.899 192.188 62.0174 194.258C63.0366 196.382 64.2536 198.404 65.6524 200.298C68.373 204.144 71.4436 207.775 73.8029 211.903C74.9527 213.964 75.7178 216.218 76.0607 218.554C76.3475 220.912 76.2713 223.3 75.8349 225.635C75.0785 230.284 73.6449 234.74 72.6853 239.264C72.1964 241.495 71.9279 243.768 71.8838 246.051C71.8393 248.325 72.3797 250.573 73.453 252.577C74.572 254.547 76.0545 256.286 77.8217 257.701C79.5975 259.119 81.4641 260.419 83.4097 261.592C87.293 263.967 91.3118 266.117 94.9242 268.967C96.7359 270.377 98.2676 272.115 99.4397 274.091C100.557 276.08 101.368 278.227 101.844 280.459C102.905 284.87 103.267 289.349 104.102 293.715C104.453 295.892 105.004 298.031 105.75 300.106C106.474 302.16 107.607 304.046 109.08 305.648C112.207 308.691 116.61 309.901 120.832 310.67C125.054 311.439 129.445 311.801 133.69 312.774C135.816 313.243 137.884 313.949 139.854 314.878C141.776 315.906 143.497 317.274 144.934 318.916C147.614 322.243 149.983 325.809 152.012 329.571C154.179 333.168 156.346 336.832 159.462 339.558C160.984 340.926 162.799 341.924 164.768 342.477C166.766 342.982 168.833 343.15 170.886 342.974C174.935 342.429 178.938 341.586 182.864 340.452C186.772 339.284 190.831 338.705 194.909 338.733C196.941 338.886 198.931 339.391 200.79 340.226C202.603 341.079 204.341 342.086 205.983 343.234C209.28 345.497 212.305 347.996 215.522 350.191C217.105 351.301 218.778 352.277 220.523 353.109C221.389 353.51 222.279 353.858 223.187 354.149C223.65 354.274 224.113 354.364 224.576 354.477L225.276 354.624H225.976C229.78 355.054 233.438 353.493 236.644 351.582C239.85 349.67 242.796 347.261 245.799 345.044C248.715 342.712 251.965 340.832 255.439 339.468C259.001 338.491 262.749 338.421 266.344 339.264C269.9 339.943 273.332 340.95 276.764 341.775C280.127 342.696 283.609 343.104 287.093 342.986C290.496 342.668 293.663 341.106 295.989 338.597C298.239 336.103 300.208 333.368 301.859 330.442C303.563 327.591 305.178 324.696 307.052 321.992C308.825 319.226 311.208 316.905 314.017 315.206C316.85 313.764 319.901 312.801 323.048 312.356C326.13 311.801 329.189 311.451 332.181 310.964C335.145 310.56 338.047 309.781 340.816 308.646C343.499 307.525 345.751 305.57 347.24 303.069C348.599 300.579 349.537 297.881 350.017 295.084C351.146 289.587 351.439 284.078 352.895 278.932C353.559 276.375 354.764 273.991 356.429 271.942C358.113 270.041 360.05 268.381 362.186 267.01C366.307 264.228 370.619 262.101 374.355 259.432C376.217 258.168 377.906 256.666 379.379 254.964C380.752 253.306 381.712 251.344 382.179 249.241C382.572 247.209 382.629 245.126 382.348 243.076C382.115 241.111 381.76 239.161 381.287 237.24C380.384 233.473 379.368 229.922 378.735 226.472C378.001 223.229 378.001 219.863 378.735 216.62C379.603 213.844 380.915 211.227 382.619 208.872C385.678 204.449 388.624 200.954 390.521 197.833C392.105 195.536 393.253 192.967 393.908 190.254C394.077 189.565 394.175 188.86 394.201 188.15L394.269 187.438C394.269 187.438 394.269 187.675 394.269 188.15C394.247 188.863 394.156 189.571 393.998 190.266C393.355 193 392.207 195.59 390.611 197.9C388.681 201.045 385.757 204.551 382.709 208.974C381.016 211.311 379.722 213.914 378.882 216.677C378.148 219.885 378.148 223.218 378.882 226.427C379.514 229.82 380.542 233.405 381.456 237.172C381.948 239.108 382.325 241.072 382.585 243.054C382.866 245.13 382.809 247.239 382.416 249.297C381.944 251.449 380.969 253.457 379.571 255.156C378.084 256.878 376.38 258.398 374.502 259.681C370.732 262.373 366.431 264.51 362.333 267.282C360.24 268.644 358.342 270.284 356.688 272.157C355.058 274.174 353.88 276.52 353.234 279.034C351.8 284.124 351.484 289.621 350.378 295.152C349.901 297.994 348.951 300.735 347.567 303.262C346.042 305.836 343.731 307.851 340.975 309.008C338.177 310.159 335.245 310.949 332.248 311.36C329.245 311.858 326.175 312.209 323.116 312.763C320.009 313.207 316.997 314.159 314.198 315.579C311.467 317.24 309.15 319.503 307.424 322.196C305.573 324.877 303.959 327.761 302.243 330.634C300.582 333.59 298.598 336.352 296.327 338.868C293.927 341.462 290.654 343.073 287.138 343.393C283.605 343.532 280.071 343.124 276.662 342.182C273.219 341.357 269.787 340.361 266.265 339.694C262.749 338.869 259.082 338.935 255.597 339.886C252.176 341.238 248.976 343.095 246.104 345.395C243.112 347.6 240.166 349.976 236.915 351.966C236.068 352.419 235.266 352.95 234.386 353.324C233.946 353.527 233.517 353.742 233.076 353.923L231.71 354.41C229.858 355.047 227.891 355.278 225.942 355.088L225.208 355.032C224.971 355.032 224.734 354.93 224.486 354.885C224.011 354.772 223.526 354.681 223.063 354.545C222.125 354.255 221.209 353.9 220.32 353.482C218.548 352.64 216.849 351.652 215.24 350.53C212 348.268 208.963 345.802 205.701 343.574C204.08 342.447 202.37 341.456 200.587 340.61C198.784 339.806 196.855 339.32 194.886 339.174C190.862 339.156 186.857 339.731 182.999 340.882C179.033 342.051 174.984 342.917 170.886 343.472C168.793 343.677 166.68 343.535 164.632 343.053C162.581 342.481 160.689 341.443 159.101 340.022C155.895 337.206 153.705 333.507 151.537 329.899C149.529 326.167 147.178 322.63 144.516 319.334C143.129 317.741 141.46 316.418 139.594 315.432C137.67 314.516 135.647 313.825 133.566 313.374C129.366 312.446 125.043 312.05 120.73 311.27C118.558 310.908 116.423 310.347 114.352 309.596C112.252 308.824 110.331 307.631 108.708 306.089C107.167 304.44 105.987 302.487 105.242 300.355C104.48 298.248 103.917 296.074 103.56 293.862C102.77 289.462 102.431 284.983 101.302 280.64C100.834 278.464 100.042 276.371 98.9543 274.43C97.8117 272.512 96.318 270.827 94.5517 269.465C91.0522 266.648 87.0108 264.522 83.1162 262.135C81.1513 260.947 79.2658 259.632 77.4718 258.199C75.6457 256.732 74.1135 254.932 72.9563 252.894C71.8415 250.809 71.2817 248.472 71.3307 246.108C71.3575 243.767 71.6299 241.435 72.1435 239.151C73.103 234.627 74.5367 230.103 75.2817 225.578C75.7079 223.299 75.7802 220.968 75.4962 218.667C75.1543 216.381 74.3885 214.179 73.2385 212.175C70.9807 208.103 67.865 204.495 65.1218 200.615C63.6923 198.682 62.4416 196.622 61.3853 194.462C60.237 192.312 59.6362 189.91 59.6362 187.472C59.6362 185.033 60.237 182.632 61.3853 180.482C62.4271 178.327 63.6667 176.275 65.088 174.351C67.8311 170.471 70.8904 166.863 73.1933 162.803C74.3423 160.794 75.1079 158.588 75.4511 156.299C75.7145 153.997 75.6384 151.668 75.2253 149.388C74.4689 144.864 73.0353 140.339 72.0757 135.815C71.5715 133.533 71.3029 131.206 71.2742 128.87C71.2292 126.504 71.7929 124.167 72.9111 122.083C74.0759 120.054 75.607 118.259 77.4266 116.79C79.2179 115.352 81.1036 114.037 83.071 112.854C86.9656 110.467 90.9731 108.329 94.5065 105.524C96.2696 104.161 97.7595 102.476 98.8979 100.559C99.9804 98.6125 100.768 96.5159 101.235 94.3376C102.285 89.9942 102.646 85.5264 103.492 81.1265C103.845 78.9147 104.405 76.741 105.163 74.634C105.844 72.4773 107.029 70.5146 108.619 68.9093C110.21 67.3039 112.16 66.1023 114.307 65.4043C116.378 64.6527 118.513 64.0923 120.685 63.7303C124.998 62.9498 129.321 62.5992 133.521 61.6378C135.598 61.1721 137.62 60.4818 139.549 59.5792C141.41 58.5847 143.074 57.2585 144.459 55.6656C147.122 52.37 149.473 48.8333 151.481 45.1012C153.648 41.493 155.838 37.7944 159.056 34.9893C160.651 33.5469 162.561 32.4973 164.632 31.924C166.681 31.4469 168.793 31.3055 170.886 31.5055C174.958 32.051 178.984 32.8979 182.932 34.0391C186.787 35.199 190.793 35.7784 194.819 35.7584C196.769 35.6026 198.678 35.1129 200.463 34.3106C202.252 33.4759 203.963 32.4842 205.577 31.3471C208.851 29.085 211.887 26.6079 215.127 24.4022C216.734 23.2756 218.433 22.288 220.207 21.4501C221.095 21.0356 222.007 20.6767 222.939 20.3756C223.413 20.2398 223.899 20.1606 224.373 20.0475L225.084 19.8892H225.818C227.767 19.7047 229.733 19.936 231.586 20.5678L232.952 21.0542C233.392 21.2352 233.821 21.4501 234.262 21.6537C235.153 22.0383 235.955 22.5586 236.79 23.011C240.053 25.0017 242.988 27.377 245.991 29.5826C248.861 31.8809 252.057 33.7375 255.473 35.0911C258.957 36.0477 262.625 36.1138 266.141 35.2833C269.663 34.6273 273.095 33.6319 276.538 32.8062C279.948 31.8668 283.48 31.4549 287.014 31.5847C290.529 31.9082 293.8 33.5191 296.203 36.109C298.477 38.6299 300.464 41.3953 302.13 44.3547C303.846 47.2164 305.449 50.112 307.3 52.7813C309.023 55.4804 311.34 57.7478 314.073 59.4095C316.87 60.8352 319.884 61.7868 322.991 62.2259C326.051 62.7802 329.121 63.1308 332.124 63.6285C335.119 64.0447 338.051 64.8351 340.85 65.9812C343.606 67.1369 345.921 69.1466 347.454 71.7158C348.833 74.2445 349.783 76.9851 350.265 79.8257C351.394 85.3568 351.688 90.8539 353.11 95.9438C353.763 98.455 354.941 100.799 356.564 102.821C358.214 104.7 360.113 106.344 362.209 107.707C366.307 110.478 370.619 112.616 374.378 115.308C376.256 116.59 377.959 118.111 379.447 119.832C380.846 121.528 381.825 123.532 382.303 125.68C382.696 127.742 382.753 129.855 382.472 131.935C382.213 133.913 381.836 135.873 381.343 137.805C380.44 141.583 379.401 145.124 378.769 148.562C378.035 151.771 378.035 155.104 378.769 158.312C379.609 161.075 380.903 163.678 382.596 166.015C385.633 170.449 388.557 173.933 390.498 177.088C392.091 179.4 393.239 181.99 393.885 184.723C394.044 185.418 394.134 186.126 394.156 186.838C394.291 187.246 394.291 187.494 394.291 187.494Z" fill="#263238"/>
<path d="M195.721 342.974C195.879 342.974 191.714 359.941 186.419 380.775C181.125 401.61 176.7 418.475 176.541 418.441C176.383 418.407 180.549 401.474 185.843 380.628C191.138 359.782 195.608 342.884 195.721 342.974Z" fill="#263238"/>
<path d="M227.115 290.163C283.713 290.163 329.595 244.192 329.595 187.483C329.595 130.774 283.713 84.8024 227.115 84.8024C170.517 84.8024 124.636 130.774 124.636 187.483C124.636 244.192 170.517 290.163 227.115 290.163Z" fill="white"/>
<path d="M259.642 126.689L259.75 126.864L259.949 126.913L294.268 135.324L304.189 220.336L300.824 260.434C270.79 287.161 239.141 292.535 212.701 288.555C186.289 284.579 165.091 271.273 155.897 260.587L155.604 256.41C155.604 256.402 155.603 256.39 155.603 256.375C155.602 256.343 155.602 256.295 155.6 256.233C155.597 256.109 155.592 255.923 155.585 255.682C155.573 255.199 155.556 254.489 155.534 253.582C155.489 251.766 155.426 249.159 155.353 245.994C155.206 239.663 155.018 231.101 154.852 222.174C154.52 204.306 154.279 185.016 154.633 179.2C154.984 173.441 157.078 167.041 159.276 161.884C160.373 159.311 161.491 157.058 162.42 155.364C162.885 154.516 163.302 153.811 163.643 153.278C163.955 152.79 164.189 152.472 164.331 152.314L193.248 137.811L193.413 137.729L193.484 137.559L198.216 126.369L251.713 113.818L259.642 126.689Z" fill="white" stroke="#BDBDBD"/>
<path d="M248.237 78.9095C250.619 70.0304 252.956 61.0948 253.78 51.9443C254.604 42.7937 253.847 33.3378 250.212 24.8999C249.659 23.6217 245.087 15.082 243.71 15.2969C242.728 15.4439 245.686 23.4747 245.234 24.3456C240.888 32.7949 240.098 42.7146 241.351 52.1366C242.644 61.2864 244.953 70.2627 248.237 78.8982" fill="#263238"/>
<path d="M247.334 43.8456C246.905 20.8053 233.155 1.85947 210.182 2.93401L208.06 3.16022C197.785 4.24557 188.294 9.16639 181.475 16.9439C174.656 24.7214 171.009 34.7857 171.259 45.135C171.755 65.0988 172.546 87.1551 173.799 97.7647C176.384 119.719 198.634 120.828 198.634 120.828L199.661 135.272L209.087 145.531L252.786 118.385L247.334 43.8456Z" fill="#FFBF9D"/>
<path d="M198.691 120.998C198.691 120.998 212.61 120.353 226.371 109.517C226.371 109.517 221.765 129.436 199.662 129.764L198.691 120.998Z" fill="#FF9A6C"/>
<path d="M183.891 63.0403C183.968 63.8659 184.367 64.6279 185.001 65.1613C185.635 65.6947 186.452 65.9567 187.278 65.8906C187.679 65.8806 188.075 65.7901 188.441 65.6245C188.808 65.4589 189.137 65.2216 189.411 64.9265C189.684 64.6314 189.896 64.2845 190.034 63.9062C190.172 63.5279 190.232 63.1258 190.213 62.7236C190.132 61.8991 189.733 61.1389 189.1 60.606C188.467 60.0732 187.65 59.8101 186.826 59.8732C186.424 59.8817 186.027 59.9712 185.66 60.1362C185.293 60.3013 184.963 60.5386 184.689 60.834C184.415 61.1294 184.204 61.4769 184.066 61.8559C183.929 62.2349 183.87 62.6377 183.891 63.0403Z" fill="#263238"/>
<path d="M176.915 53.7654C177.344 54.1273 179.534 52.1253 182.909 51.7747C186.284 51.424 188.926 52.9058 189.253 52.3968C189.411 52.2045 188.937 51.5032 187.775 50.8246C186.21 49.9699 184.42 49.6184 182.649 49.8179C180.896 49.999 179.244 50.7314 177.931 51.9104C176.971 52.8266 176.7 53.5957 176.915 53.7654Z" fill="#263238"/>
<path d="M213.683 60.5068C213.76 61.3324 214.159 62.0944 214.793 62.6278C215.427 63.1612 216.244 63.4232 217.069 63.3571C217.471 63.347 217.867 63.2566 218.233 63.091C218.6 62.9254 218.929 62.6881 219.203 62.393C219.476 62.0979 219.688 61.751 219.826 61.3727C219.963 60.9944 220.024 60.5923 220.005 60.1901C219.927 59.3635 219.529 58.6005 218.895 58.0653C218.262 57.5301 217.444 57.2655 216.618 57.3284C216.216 57.34 215.82 57.4318 215.453 57.5986C215.087 57.7654 214.757 58.0038 214.484 58.2998C214.211 58.5958 213.999 58.9434 213.861 59.3224C213.724 59.7013 213.663 60.104 213.683 60.5068Z" fill="#263238"/>
<path d="M210.092 51.6391C210.521 52.0124 212.722 49.999 216.086 49.6484C219.45 49.2977 222.114 50.7795 222.43 50.2818C222.588 50.0782 222.126 49.3769 220.963 48.7096C219.396 47.8504 217.601 47.4988 215.826 47.7029C214.071 47.8763 212.417 48.6097 211.108 49.7954C210.16 50.7003 209.889 51.4807 210.092 51.6391Z" fill="#263238"/>
<path d="M200.723 78.8868C200.723 78.6946 198.59 78.5475 195.147 78.4683C194.277 78.4683 193.442 78.3892 193.239 77.8123C193.068 76.9307 193.175 76.0179 193.544 75.1995L195.395 68.4129C197.946 58.6855 199.696 50.7227 199.312 50.6209C198.928 50.5191 196.524 58.3236 193.972 68.0623L192.234 74.9054C191.809 75.9911 191.777 77.1918 192.144 78.2987C192.298 78.5933 192.517 78.8485 192.786 79.0446C193.054 79.2407 193.363 79.3725 193.69 79.4298C194.181 79.4901 194.678 79.4901 195.169 79.4298C198.612 79.2827 200.734 79.0791 200.723 78.8868Z" fill="#263238"/>
<path d="M210.894 80.1763C210.341 80.1763 210.725 83.8636 207.869 86.8045C205.013 89.7453 201.096 89.7453 201.096 90.2656C201.096 90.4918 202.033 90.8877 203.692 90.752C205.83 90.5509 207.828 89.6018 209.337 88.0713C210.776 86.5905 211.586 84.6074 211.594 82.5402C211.651 80.9906 211.143 80.131 210.894 80.1763Z" fill="#263238"/>
<path d="M208.839 37.9077C209.268 38.7899 212.587 37.9982 216.595 38.066C220.602 38.1339 223.921 38.8691 224.35 37.9869C224.542 37.5684 223.898 36.7653 222.51 36.0074C220.668 35.1126 218.647 34.6478 216.6 34.6478C214.553 34.6478 212.533 35.1126 210.691 36.0074C209.268 36.6861 208.647 37.4892 208.839 37.9077Z" fill="#263238"/>
<path d="M177.129 42.3866C177.795 43.0879 180.041 42.0473 182.83 41.7079C185.618 41.3686 188.045 41.7079 188.474 40.8257C188.677 40.4072 188.226 39.6946 187.119 39.0612C185.637 38.3369 183.974 38.0696 182.34 38.2931C180.707 38.5166 179.176 39.2209 177.942 40.3167C177.061 41.2102 176.824 42.0359 177.129 42.3866Z" fill="#263238"/>
<path d="M247.255 60.3259C247.617 60.1223 261.863 54.2632 262.969 69.3746C264.076 84.486 248.779 82.4274 248.678 81.9976C248.576 81.5678 247.255 60.3259 247.255 60.3259Z" fill="#FFBF9D"/>
<path d="M252.854 75.946C252.922 75.946 253.125 76.1044 253.588 76.274C254.231 76.4971 254.935 76.4606 255.552 76.1722C257.099 75.4709 258.25 72.8468 258.126 70.1209C258.074 68.8243 257.73 67.5562 257.121 66.4109C256.945 65.9509 256.659 65.5407 256.29 65.2156C255.92 64.8905 255.477 64.6602 254.999 64.5446C254.693 64.484 254.376 64.5336 254.103 64.6847C253.831 64.8358 253.62 65.0787 253.509 65.3703C253.328 65.8114 253.452 66.1055 253.373 66.1394C253.294 66.1734 253.035 65.9019 253.102 65.2798C253.162 64.8974 253.349 64.5464 253.633 64.2845C254.025 63.942 254.536 63.7673 255.055 63.7981C255.682 63.8723 256.279 64.1083 256.788 64.483C257.296 64.8578 257.699 65.3584 257.957 65.9358C258.698 67.1937 259.117 68.616 259.176 70.0756C259.3 73.1183 257.957 76.0817 255.789 76.8622C255.394 77.0111 254.971 77.0691 254.551 77.0319C254.131 76.9947 253.725 76.8633 253.362 76.6473C252.91 76.308 252.809 75.9686 252.854 75.946Z" fill="#FF9A6C"/>
<path d="M179.398 19.482C176.881 18.2831 183.688 9.90168 189.558 6.79117C198.352 2.09714 212.011 -1.33006 220.512 0.502306C230.751 2.76449 239.421 7.17575 245.054 16.0209C250.687 24.866 253.272 35.4191 253.656 45.9043C253.769 49.1053 253.656 52.4533 252.12 55.2584C250.235 58.7309 246.329 61.0949 246.803 65.6871C246.916 66.5163 246.863 67.3597 246.646 68.1677C246.428 68.9758 246.052 69.7322 245.539 70.3925C242.965 73.5143 239.421 70.9693 237.693 68.2999C234.002 62.6445 233.178 55.5752 232.455 48.8112C231.936 44.0154 231.428 39.1065 232.455 34.4011C233.02 31.8335 234.058 29.3791 234.487 26.7889C234.916 24.1987 234.657 21.3144 232.941 19.3237C232.541 18.9061 232.102 18.5274 231.631 18.1926C229.41 16.4846 226.775 15.4016 223.996 15.0557C221.218 14.7097 218.398 15.1132 215.827 16.2245C207.53 19.7761 193.34 25.2053 189.366 22.5586C183.665 18.7581 182.175 16.0887 182.175 16.0887L179.398 19.482Z" fill="#263238"/>
<path d="M155.524 260.133C147.545 251.594 140.036 239.877 134.355 230.881L137.313 208.009C137.314 208.008 137.313 208.006 137.313 208.004C137.314 208 137.315 207.993 137.316 207.984C137.319 207.968 137.322 207.943 137.326 207.91C137.335 207.844 137.349 207.744 137.366 207.615C137.401 207.357 137.453 206.977 137.521 206.49C137.656 205.517 137.855 204.117 138.108 202.413C138.615 199.005 139.339 194.38 140.209 189.513C141.079 184.644 142.095 179.537 143.184 175.164C144.278 170.77 145.432 167.18 146.56 165.299C148.832 161.508 152.99 158.58 156.755 156.434C158.63 155.364 160.387 154.499 161.743 153.82C162.417 153.483 163.001 153.187 163.443 152.937L163.445 152.935L155.524 260.133Z" fill="white" stroke="#BDBDBD"/>
<g opacity="0.3">
<path opacity="0.3" d="M256.738 185.752C257.071 190.483 257.965 195.157 259.402 199.676C261.017 204.121 263.85 208.306 267.993 210.603C269.72 211.553 271.673 212.186 273.13 213.543C274.586 214.901 275.466 217.095 276.877 218.69C278.643 220.444 280.821 221.724 283.21 222.411C289.935 224.882 297.071 226.034 304.23 225.804C304.456 223.384 304.467 214.493 304.693 212.062L256.738 185.752Z" fill="black"/>
</g>
<mask id="path-91-inside-1_193_1299" fill="white">
<path d="M294.725 134.921C294.725 134.921 310.281 139.536 314.842 146.176C319.402 152.815 327.474 178.559 329.133 183.332C330.793 188.105 329.337 199.167 326.232 207.085C323.128 215.003 317.732 221.891 308.418 222.92C299.105 223.95 284.385 218.566 281.066 215.003C277.747 211.44 276.381 203.556 276.381 203.556C280.517 202.83 284.595 201.805 288.584 200.491"/>
</mask>
<path d="M294.725 134.921C294.725 134.921 310.281 139.536 314.842 146.176C319.402 152.815 327.474 178.559 329.133 183.332C330.793 188.105 329.337 199.167 326.232 207.085C323.128 215.003 317.732 221.891 308.418 222.92C299.105 223.95 284.385 218.566 281.066 215.003C277.747 211.44 276.381 203.556 276.381 203.556C280.517 202.83 284.595 201.805 288.584 200.491" fill="white"/>
<path d="M276.381 203.556L276.208 202.571L275.225 202.744L275.396 203.727L276.381 203.556ZM294.725 134.921C294.441 135.88 294.441 135.88 294.441 135.88C294.441 135.88 294.441 135.88 294.441 135.88C294.441 135.88 294.442 135.88 294.442 135.881C294.444 135.881 294.446 135.882 294.45 135.883C294.456 135.885 294.467 135.888 294.481 135.892C294.509 135.9 294.551 135.913 294.607 135.931C294.718 135.965 294.884 136.017 295.097 136.085C295.524 136.222 296.141 136.425 296.896 136.69C298.408 137.22 300.468 137.994 302.667 138.972C304.868 139.952 307.189 141.127 309.229 142.454C311.282 143.79 312.985 145.238 314.017 146.742L314.842 146.176L315.666 145.609C314.418 143.793 312.467 142.175 310.32 140.778C308.161 139.373 305.738 138.149 303.48 137.145C301.219 136.139 299.105 135.345 297.558 134.802C296.784 134.531 296.149 134.322 295.708 134.18C295.487 134.109 295.314 134.056 295.195 134.019C295.136 134.001 295.09 133.987 295.059 133.978C295.043 133.973 295.031 133.969 295.023 133.967C295.019 133.965 295.016 133.964 295.014 133.964C295.012 133.963 295.012 133.963 295.011 133.963C295.011 133.963 295.01 133.963 295.01 133.963C295.01 133.963 295.01 133.963 294.725 134.921ZM314.842 146.176L314.017 146.742C315.093 148.307 316.418 151.074 317.842 154.495C319.257 157.894 320.738 161.865 322.133 165.789C324.938 173.678 327.335 181.204 328.189 183.66L329.133 183.332L330.078 183.004C329.272 180.686 326.803 172.954 324.018 165.119C322.617 161.18 321.122 157.172 319.689 153.727C318.265 150.305 316.871 147.364 315.666 145.609L314.842 146.176ZM329.133 183.332L328.189 183.66C328.939 185.817 329.018 189.581 328.477 193.905C327.941 198.185 326.819 202.848 325.301 206.72L326.232 207.085L327.163 207.45C328.749 203.404 329.908 198.577 330.461 194.154C331.01 189.774 330.987 185.62 330.078 183.004L329.133 183.332ZM326.232 207.085L325.301 206.72C322.257 214.485 317.084 220.956 308.309 221.926L308.418 222.92L308.528 223.914C318.379 222.825 323.999 215.521 327.163 207.45L326.232 207.085ZM308.418 222.92L308.309 221.926C303.852 222.419 297.998 221.375 292.796 219.73C290.207 218.912 287.814 217.955 285.875 216.992C283.908 216.015 282.5 215.075 281.797 214.321L281.066 215.003L280.334 215.684C281.291 216.712 282.968 217.781 284.985 218.783C287.031 219.799 289.522 220.793 292.193 221.637C297.508 223.317 303.671 224.451 308.528 223.914L308.418 222.92ZM281.066 215.003L281.797 214.321C280.301 212.714 279.183 210.04 278.433 207.644C278.065 206.468 277.797 205.398 277.621 204.623C277.534 204.235 277.469 203.923 277.427 203.708C277.406 203.601 277.391 203.519 277.38 203.464C277.375 203.437 277.372 203.416 277.369 203.403C277.368 203.396 277.367 203.391 277.367 203.388C277.366 203.387 277.366 203.386 277.366 203.385C277.366 203.385 277.366 203.385 277.366 203.385C277.366 203.385 277.366 203.385 277.366 203.385C277.366 203.385 277.366 203.385 276.381 203.556C275.396 203.727 275.396 203.727 275.396 203.727C275.396 203.727 275.396 203.727 275.396 203.728C275.396 203.728 275.396 203.729 275.396 203.729C275.396 203.731 275.397 203.733 275.397 203.735C275.398 203.74 275.399 203.746 275.4 203.755C275.403 203.771 275.408 203.796 275.414 203.827C275.425 203.889 275.442 203.98 275.465 204.095C275.51 204.326 275.579 204.657 275.671 205.064C275.855 205.878 276.136 207.002 276.524 208.242C277.287 210.679 278.512 213.728 280.334 215.684L281.066 215.003ZM276.381 203.556L276.554 204.541C280.737 203.806 284.862 202.77 288.897 201.44L288.584 200.491L288.271 199.541C284.328 200.84 280.296 201.853 276.208 202.571L276.381 203.556Z" fill="#BDBDBD" mask="url(#path-91-inside-1_193_1299)"/>
<path d="M288.584 200.57L288.392 200.649L287.805 200.864C287.286 201.045 286.507 201.305 285.48 201.61C282.512 202.5 279.497 203.225 276.449 203.782L276.573 203.612C276.952 205.556 277.484 207.466 278.165 209.324C278.536 210.378 278.985 211.402 279.508 212.39C280.044 213.444 280.75 214.404 281.597 215.229C282.552 216.05 283.606 216.749 284.735 217.31C285.927 217.937 287.152 218.499 288.404 218.995C291.09 220.072 293.852 220.949 296.667 221.619C299.705 222.366 302.818 222.765 305.946 222.807C306.761 222.814 307.575 222.776 308.385 222.694C309.202 222.6 310.012 222.457 310.812 222.264C312.452 221.895 314.027 221.281 315.485 220.443C318.522 218.683 321.072 216.191 322.902 213.193C324.838 210.079 326.32 206.704 327.305 203.171C328.108 200.456 328.708 197.685 329.1 194.88C329.52 192.165 329.656 189.412 329.506 186.669C329.417 185.348 329.147 184.047 328.705 182.8C328.276 181.533 327.858 180.278 327.452 179.034L325.024 171.761C323.421 167.033 321.841 162.565 320.261 158.414C318.873 154.551 317.202 150.797 315.26 147.182C314.362 145.646 313.164 144.307 311.738 143.246C310.494 142.255 309.173 141.366 307.786 140.588C305.56 139.315 303.256 138.182 300.889 137.195C298.947 136.392 297.412 135.826 296.374 135.453L295.188 135.034C295.047 134.997 294.911 134.943 294.782 134.876C294.924 134.894 295.064 134.929 295.199 134.978L296.407 135.34C297.469 135.679 299.026 136.211 300.991 136.98C303.378 137.924 305.704 139.016 307.956 140.249C309.367 141.026 310.715 141.915 311.986 142.907C313.455 143.987 314.691 145.352 315.621 146.922C317.607 150.557 319.313 154.338 320.723 158.233C322.338 162.373 323.929 166.852 325.544 171.58C326.345 173.944 327.158 176.376 327.993 178.853C328.411 180.086 328.829 181.341 329.246 182.608C329.711 183.897 329.995 185.245 330.093 186.612C330.254 189.397 330.121 192.191 329.698 194.948C329.299 197.783 328.692 200.584 327.881 203.33C326.872 206.923 325.351 210.352 323.365 213.509C321.483 216.588 318.859 219.143 315.734 220.941C314.228 221.799 312.604 222.428 310.913 222.807C310.091 223.003 309.258 223.15 308.419 223.248C307.583 223.248 306.748 223.395 305.935 223.361C302.764 223.303 299.609 222.886 296.532 222.117C293.691 221.435 290.906 220.538 288.2 219.436C286.94 218.925 285.708 218.348 284.509 217.706C283.347 217.123 282.263 216.397 281.28 215.545C280.407 214.679 279.682 213.674 279.136 212.571C278.612 211.568 278.163 210.529 277.792 209.46C277.13 207.568 276.613 205.628 276.246 203.658V203.51H276.392C280.366 202.821 283.414 202.04 285.48 201.475L287.828 200.807L288.426 200.638C288.517 200.57 288.584 200.558 288.584 200.57Z" fill="#263238"/>
<path d="M317.133 192.234C317.02 192.234 316.659 190.311 315.361 187.438C313.655 183.703 311.275 180.317 308.339 177.45C306.712 175.899 304.872 174.589 302.875 173.559L301.509 172.949C301.058 172.745 300.584 172.655 300.155 172.508C299.342 172.251 298.507 172.077 297.66 171.987L297.095 171.908H295.56C295.03 171.9 294.501 171.946 293.98 172.044C293.526 172.135 293.065 172.184 292.603 172.191C293.03 172.013 293.477 171.888 293.935 171.818C294.46 171.668 295.003 171.588 295.549 171.58H296.565H297.118L297.705 171.648C298.58 171.709 299.446 171.861 300.29 172.1C300.764 172.219 301.231 172.363 301.69 172.53L303.112 173.141C305.184 174.166 307.087 175.501 308.757 177.1C311.757 180.005 314.134 183.491 315.745 187.347C316.032 188.003 316.281 188.676 316.49 189.361C316.664 189.876 316.807 190.401 316.919 190.933C317.031 191.359 317.103 191.794 317.133 192.234Z" fill="#263238"/>
<path d="M325.622 178.242C324.981 176.596 324.195 175.01 323.274 173.503C320.935 169.925 317.434 167.268 313.363 165.981C308.588 164.522 303.948 164.974 300.708 165.28L296.836 165.743C296.367 165.828 295.89 165.87 295.414 165.868C295.86 165.693 296.326 165.575 296.802 165.517C297.705 165.336 299.06 165.099 300.663 164.872C304.942 164.123 309.331 164.308 313.532 165.415C315.832 166.108 317.968 167.263 319.809 168.809C321.316 170.092 322.604 171.612 323.624 173.31C324.322 174.425 324.88 175.622 325.284 176.873C325.449 177.315 325.562 177.774 325.622 178.242Z" fill="#263238"/>
<path d="M313.892 161.513C307.807 160.075 301.445 160.326 295.491 162.237C296.272 161.727 297.13 161.345 298.031 161.106C300.168 160.448 302.379 160.068 304.613 159.975C306.846 159.895 309.08 160.101 311.262 160.586C312.18 160.761 313.066 161.074 313.892 161.513Z" fill="#263238"/>
<path d="M288.719 138.812C288.809 138.812 288.584 140.407 288.403 142.963C287.929 149.511 288.493 156.092 290.074 162.463L289.667 162.599C289.204 161.298 288.843 160.235 288.606 159.489C288.459 159.125 288.353 158.745 288.29 158.357C288.52 158.709 288.702 159.089 288.832 159.489C289.137 160.201 289.554 161.242 290.074 162.531L289.667 162.656C288.773 159.526 288.18 156.318 287.895 153.075C287.599 149.721 287.63 146.346 287.985 142.997C288.132 141.719 288.301 140.735 288.437 139.977C288.475 139.577 288.57 139.185 288.719 138.812Z" fill="#263238"/>
<path d="M266.718 109.8C266.718 109.8 258.646 109.8 257.63 119.516C256.851 126.981 257.63 134.22 257.63 137.5C257.63 140.78 256.197 152.397 256.197 152.397C256.197 152.397 250.688 157.294 250.778 163.176C250.868 169.058 255.068 170.89 255.068 170.89C254.364 172.712 254.208 174.702 254.622 176.612C255.035 178.522 255.999 180.269 257.393 181.635C257.393 181.635 255.056 187.053 256.976 190.684C258.082 192.49 259.808 193.829 261.83 194.451C261.498 195.165 261.324 195.943 261.319 196.731C261.313 197.519 261.476 198.299 261.797 199.018C262.118 199.738 262.59 200.38 263.179 200.901C263.769 201.422 264.464 201.811 265.216 202.04C267.928 202.882 270.769 203.23 273.604 203.069L279.632 202.956L284.938 205.897C284.938 205.897 294.037 201.927 294.262 196.554L294.499 191.182C294.499 191.182 291.892 182.359 291.677 179.531C291.463 176.704 293.777 169.951 292.377 166.92C290.977 163.888 286.089 162.101 286.552 157.871C287.015 153.641 286.089 151.288 283.99 148.947C281.89 146.605 272.622 141.945 272.622 141.945C272.622 141.945 270.24 135.159 270.24 130.51C270.24 125.861 274.88 111.575 266.718 109.8Z" fill="#FFBF9D"/>
<path d="M272.159 143.71C271.465 144.279 270.707 144.765 269.901 145.158C268.479 145.995 266.514 147.103 264.257 148.302C261.999 149.501 260.035 150.564 258.612 151.299C257.843 151.765 257.026 152.144 256.174 152.43C256.865 151.855 257.623 151.365 258.432 150.971C259.854 150.134 261.818 149.026 264.076 147.827C266.334 146.628 268.298 145.565 269.72 144.83C270.488 144.364 271.306 143.988 272.159 143.71Z" fill="#FF9A6C"/>
<path d="M277.464 162C277.464 162 277.238 162.26 276.753 162.633C276.079 163.163 275.378 163.658 274.653 164.115C272.269 165.645 269.735 166.926 267.09 167.938C264.444 168.966 261.702 169.724 258.905 170.2C257.776 170.37 256.952 170.471 256.354 170.505C256.041 170.564 255.719 170.564 255.406 170.505C255.406 170.415 256.715 170.234 258.792 169.793C261.532 169.216 264.222 168.43 266.841 167.44C269.454 166.427 271.983 165.209 274.405 163.798C275.393 163.147 276.414 162.546 277.464 162Z" fill="#FF9A6C"/>
<path d="M284.395 156.174C284.542 156.231 284.237 157.305 283.266 158.131C282.295 158.957 281.257 159.206 281.223 159.059C281.189 158.911 282.024 158.482 282.871 157.69C283.718 156.898 284.237 156.106 284.395 156.174Z" fill="#FF9A6C"/>
<path d="M281.065 178.004C279.981 178.532 278.846 178.949 277.678 179.249C274.901 180.077 272.073 180.723 269.212 181.183C266.351 181.65 263.462 181.922 260.565 181.997C259.364 182.09 258.156 182.052 256.963 181.884C258.149 181.715 259.344 181.617 260.542 181.59C262.8 181.432 265.791 181.138 269.121 180.606C272.452 180.074 275.421 179.384 277.565 178.841C278.715 178.494 279.883 178.215 281.065 178.004Z" fill="#FF9A6C"/>
<path d="M288.449 176.704C288.62 176.115 288.827 175.537 289.069 174.973C289.517 173.591 289.667 172.13 289.51 170.686C289.33 169.243 288.837 167.857 288.065 166.626C287.699 166.134 287.363 165.62 287.06 165.087C287.06 165.031 287.703 165.449 288.415 166.388C289.328 167.629 289.903 169.086 290.085 170.617C290.267 172.147 290.05 173.699 289.453 175.12C288.99 176.149 288.505 176.704 288.449 176.704Z" fill="#FF9A6C"/>
<path d="M281.517 194.383C280.593 194.724 279.63 194.952 278.65 195.061C276.305 195.432 273.935 195.617 271.561 195.616C269.181 195.611 266.807 195.411 264.46 195.016C263.48 194.905 262.517 194.674 261.593 194.326C262.573 194.344 263.551 194.438 264.517 194.609C266.856 194.874 269.207 195.014 271.561 195.028C273.91 195.023 276.258 194.894 278.594 194.643C279.56 194.478 280.538 194.391 281.517 194.383Z" fill="#FF9A6C"/>
<path d="M267.158 130.623C267.158 130.691 266.785 130.996 266.029 131.268C265.033 131.601 263.976 131.709 262.934 131.584C261.891 131.459 260.89 131.103 260.001 130.544C259.323 130.103 259.007 129.718 259.053 129.661C260.301 130.29 261.631 130.739 263.004 130.996C264.399 131.071 265.798 130.945 267.158 130.623Z" fill="#FF9A6C"/>
<path d="M290.118 177.348C290.22 177.627 290.266 177.923 290.254 178.219C290.254 179.023 290.16 179.824 289.972 180.606C289.757 181.59 289.385 182.732 289.023 183.999C288.586 185.325 288.444 186.73 288.606 188.116C288.798 189.553 289.87 190.707 290.039 192.166C290.155 193.399 289.84 194.634 289.148 195.661C288.727 196.341 288.239 196.978 287.691 197.561C287.308 197.979 287.071 198.183 287.037 198.16C287.003 198.138 287.816 197.165 288.786 195.457C289.37 194.494 289.62 193.365 289.498 192.245C289.362 191.012 288.278 189.858 288.019 188.218C287.847 186.745 288.013 185.252 288.504 183.852C288.899 182.574 289.306 181.454 289.565 180.459C289.826 179.437 290.011 178.397 290.118 177.348Z" fill="#FF9A6C"/>
<path d="M293.156 184.452C293.34 184.783 293.469 185.142 293.539 185.515C293.743 186.205 294.014 187.223 294.262 188.49C294.568 189.98 294.75 191.493 294.804 193.014C294.901 194.916 294.553 196.814 293.788 198.556C292.899 200.225 291.722 201.723 290.311 202.979C289.188 204.004 287.992 204.945 286.732 205.795C285.66 206.531 284.757 207.073 284.125 207.424C283.814 207.635 283.476 207.802 283.12 207.922C283.063 207.843 284.418 206.983 286.506 205.456C287.718 204.573 288.872 203.613 289.961 202.583C291.303 201.354 292.425 199.904 293.28 198.296C294.003 196.632 294.346 194.828 294.284 193.014C294.258 191.517 294.122 190.024 293.878 188.546C293.438 186.024 293.065 184.474 293.156 184.452Z" fill="#263238"/>
<path d="M207.981 146.798C207.511 146.521 207.072 146.195 206.671 145.825L203.285 142.986L200.937 141.006C200.535 140.63 200.088 140.307 199.605 140.045C199.37 139.925 199.111 139.862 198.848 139.862C198.585 139.862 198.326 139.925 198.092 140.045C197.121 140.554 196.466 141.798 195.642 142.839C194.818 143.879 194.005 145.101 193.147 146.232C191.793 148.064 190.472 149.818 189.264 151.446L188.53 152.419L188.767 151.22C189.415 147.856 190.355 144.556 191.578 141.357C192.03 140.226 192.436 139.253 192.707 138.631C192.834 138.297 193.005 137.981 193.215 137.692C193.138 138.037 193.028 138.374 192.888 138.699C192.651 139.344 192.301 140.283 191.894 141.481C190.79 144.697 189.926 147.99 189.309 151.333L188.801 151.107L192.673 145.881L195.168 142.488L196.365 140.893C196.745 140.327 197.256 139.861 197.855 139.536C198.169 139.398 198.509 139.334 198.852 139.347C199.194 139.361 199.529 139.453 199.83 139.615C200.343 139.905 200.817 140.258 201.241 140.667L203.499 142.703L206.796 145.678C207.219 146.019 207.616 146.394 207.981 146.798Z" fill="#263238"/>
<path d="M255.643 137.24C255.512 137.389 255.364 137.522 255.203 137.636L253.871 138.676L248.892 142.42L232.287 154.67L232.038 154.851L231.869 154.591C231.733 154.387 231.598 154.161 231.451 153.946L223.12 140.758L223.425 140.859C220.215 142.137 217.118 143.685 214.168 145.486C213.107 146.13 212.283 146.617 211.718 147.035C211.444 147.242 211.149 147.421 210.838 147.567C211.077 147.317 211.342 147.094 211.628 146.899C212.17 146.504 212.971 145.927 214.021 145.237C216.934 143.337 220.018 141.717 223.233 140.396L223.425 140.317L223.538 140.486C225.987 144.298 228.866 148.811 231.948 153.629C232.095 153.844 232.23 154.071 232.366 154.274L231.937 154.195L248.655 142.092L253.735 138.484L255.135 137.534C255.462 137.319 255.632 137.217 255.643 137.24Z" fill="#263238"/>
<path d="M154.325 182.223C154.377 182.484 154.399 182.75 154.393 183.015C154.393 183.603 154.393 184.361 154.449 185.277C154.449 187.325 154.551 190.186 154.607 193.693C154.743 200.796 155.025 210.659 155.398 221.461C155.77 232.263 155.985 242.126 156.007 249.241C156.007 252.804 156.007 255.676 156.007 257.667C156.007 258.606 156.007 259.375 155.951 259.929C155.963 260.198 155.944 260.468 155.894 260.732C155.878 260.465 155.878 260.197 155.894 259.929C155.894 259.353 155.894 258.583 155.827 257.667C155.827 255.609 155.736 252.747 155.668 249.252C155.544 242.137 155.251 232.285 154.89 221.472C154.528 210.659 154.303 200.807 154.28 193.693C154.28 190.141 154.28 187.257 154.28 185.277C154.28 184.327 154.28 183.569 154.28 183.015C154.278 182.751 154.293 182.486 154.325 182.223Z" fill="#263238"/>
<path d="M208.354 284.384C208.316 284.282 208.293 284.175 208.286 284.067C208.286 283.818 208.286 283.502 208.184 283.106C208.094 282.212 207.97 280.979 207.823 279.407C207.507 276.195 207.146 271.489 206.784 265.777C206.423 260.065 206.118 253.143 205.926 245.519C205.735 237.896 205.712 229.492 205.926 220.635C206.141 211.779 206.536 203.443 207.055 195.831C207.575 188.218 208.184 181.364 208.794 175.629C209.403 169.895 209.923 165.246 210.419 162.056C210.645 160.484 210.814 159.262 210.939 158.38C211.006 157.984 211.052 157.668 211.097 157.419C211.102 157.31 211.125 157.203 211.164 157.102C211.182 157.211 211.182 157.321 211.164 157.43C211.164 157.679 211.108 157.996 211.074 158.391C210.973 159.274 210.837 160.507 210.656 162.079C210.273 165.291 209.776 169.929 209.223 175.652C208.67 181.375 208.094 188.241 207.608 195.853C207.123 203.465 206.751 211.847 206.547 220.647C206.344 229.447 206.401 237.828 206.547 245.452C206.694 253.075 206.976 259.93 207.292 265.687C207.608 271.444 207.891 276.116 208.139 279.328C208.241 280.9 208.331 282.144 208.387 283.038C208.387 283.434 208.387 283.75 208.444 283.999C208.424 284.13 208.394 284.258 208.354 284.384Z" fill="#263238"/>
<path d="M174.714 99.2467L173.517 100.038L169.995 102.301C168.437 103.307 166.609 104.744 164.464 106.327C163.335 107.142 162.296 108.126 161.077 109.121L159.237 110.671C158.605 111.214 158.007 111.802 157.363 112.424C151.12 118.26 145.635 124.861 141.04 132.071L139.03 135.306C138.319 136.38 137.777 137.568 137.122 138.699C136.468 139.83 135.824 141.052 135.237 142.296C134.65 143.54 134.108 144.818 133.499 146.108C133.216 146.753 132.9 147.386 132.629 148.053C132.358 148.721 132.121 149.399 131.862 150.089C131.354 151.447 130.812 152.815 130.315 154.229C129.48 157.091 128.419 159.986 127.787 163.074C124.568 176.435 124.031 190.302 126.206 203.873C129.036 221.347 136.339 237.788 147.403 251.592C158.466 265.395 172.911 276.089 189.33 282.63C205.748 289.172 223.578 291.337 241.081 288.914C258.583 286.492 275.16 279.565 289.193 268.809C292.737 266.08 296.107 263.133 299.286 259.986L301.543 257.588C302.311 256.796 303.056 255.993 303.801 255.145L305.946 252.668C306.623 251.808 307.289 250.949 307.967 250.1C318.178 236.922 324.99 221.425 327.801 204.981C328.462 201.163 328.91 197.312 329.145 193.444C329.257 191.532 329.257 189.644 329.325 187.789C329.393 185.934 329.19 184.045 329.122 182.201C329.122 181.285 329.043 180.357 329.009 179.441C328.975 178.525 328.806 177.631 328.716 176.726C328.49 174.928 328.275 173.141 328.061 171.376C327.846 169.612 327.383 167.893 327.045 166.173C326.762 164.468 326.385 162.781 325.916 161.117L324.516 156.22C324.297 155.416 324.029 154.627 323.715 153.856C323.421 153.075 323.128 152.295 322.845 151.526C322.247 149.999 321.717 148.438 321.073 147.001C320.43 145.565 319.73 144.106 319.064 142.692C314.154 132.466 307.568 123.137 299.579 115.093C293.526 109.067 286.772 103.792 279.463 99.3824L275.15 96.9053C274.499 96.523 273.829 96.1756 273.141 95.8647L271.244 94.9598L267.858 93.3537C266.842 92.8334 265.837 92.5393 264.99 92.2226L261.062 90.7069L259.73 90.164L261.084 90.6504L265.024 92.1208C265.882 92.4601 266.887 92.7542 267.914 93.2519L271.301 94.8354L273.209 95.7403C273.9 96.0433 274.574 96.3831 275.229 96.7583L279.553 99.224C286.911 103.606 293.708 108.871 299.794 114.901C307.83 122.939 314.463 132.272 319.414 142.511C320.08 143.947 320.757 145.384 321.446 146.854C322.134 148.325 322.574 149.874 323.229 151.379L324.11 153.709C324.424 154.484 324.692 155.277 324.911 156.084C325.385 157.713 325.859 159.342 326.334 161.004C326.823 162.674 327.219 164.369 327.519 166.083C327.858 167.802 328.264 169.476 328.558 171.297C328.851 173.118 328.986 174.871 329.212 176.681C329.314 177.586 329.461 178.491 329.517 179.407C329.573 180.323 329.596 181.251 329.63 182.178C329.698 184.033 329.799 185.9 329.844 187.834C329.89 189.768 329.788 191.623 329.664 193.489C328.511 214.194 321.097 234.057 308.407 250.44L306.352 253.019L304.185 255.518C303.485 256.367 302.729 257.181 301.927 257.973L299.669 260.393C296.471 263.559 293.078 266.521 289.51 269.261C275.408 280.062 258.754 287.017 241.171 289.449C223.588 291.881 205.676 289.707 189.181 283.139C172.687 276.57 158.172 265.832 147.052 251.97C135.932 238.108 128.587 221.595 125.732 204.042C124.587 196.967 124.208 189.788 124.603 182.631C124.888 176.029 125.837 169.473 127.437 163.063C128.069 159.964 129.141 157.068 129.977 154.184C130.485 152.781 131.038 151.401 131.557 150.033C131.817 149.354 132.076 148.675 132.325 147.997C132.573 147.318 132.923 146.696 133.205 146.04C133.803 144.75 134.334 143.484 134.955 142.228C135.576 140.973 136.242 139.808 136.863 138.62C137.484 137.432 138.071 136.256 138.782 135.17L140.814 131.935C145.433 124.714 150.961 118.118 157.262 112.311C157.905 111.711 158.503 111.101 159.135 110.558L160.987 109.008C162.206 108.024 163.245 107.051 164.373 106.237C166.575 104.653 168.381 103.239 169.95 102.244L173.506 99.9819C174.274 99.4842 174.714 99.2467 174.714 99.2467Z" fill="#263238"/>
</svg>
